<?xml version="1.0" encoding="utf-8"?>
<!DOCTYPE svg PUBLIC "-//W3C//DTD SVG 1.1//EN" "http://www.w3.org/Graphics/SVG/1.1/DTD/svg11.dtd">
<svg id="Layer_1" xmlns="http://www.w3.org/2000/svg" xmlns:xlink="http://www.w3.org/1999/xlink" viewBox="0 0 424 58" preserveAspectRatio="xMinYMid meet">
  <path id="Unit_Text" fill="currentColor" data-name="Unit Text" class="cls-1" d="M107.552,27.287l-0.193-.194A21.222,21.222,0,0,1,105.1,26.9a0.842,0.842,0,0,1-.656-0.716,43.413,43.413,0,0,1-.251-6V9.951a43.418,43.418,0,0,1,.251-6,0.842,0.842,0,0,1,.656-0.716,21.316,21.316,0,0,1,2.261-.193l0.193-.193V1.535l-0.193-.174q-1.855.116-5.931,0.116-4.1,0-5.949-.116l-0.193.174V2.85l0.193,0.193a21.269,21.269,0,0,1,2.26.193,0.843,0.843,0,0,1,.657.716,43.547,43.547,0,0,1,.251,6V20.186a43.542,43.542,0,0,1-.251,6,0.843,0.843,0,0,1-.657.716,21.175,21.175,0,0,1-2.26.194l-0.193.194v1.3l0.174,0.194q1.931-.116,5.95-0.116,4.036,0,5.969.116l0.174-.194v-1.3Zm24.709,0.155-0.173-.194A5.528,5.528,0,0,1,130.079,27a1.33,1.33,0,0,1-.445-1.016q-0.1-.8-0.1-3.724,0-1.006.077-3.366t0.077-2.689a6.855,6.855,0,0,0-1.236-4.431,5.6,5.6,0,0,0-4.6-1.857,7.316,7.316,0,0,0-2.8.522l-3.323,2.786,0.039-3.25-0.425-.252a33.207,33.207,0,0,1-7.321,1.606l-0.194.213v1.084l0.194,0.193c0.965,0.039,1.526.071,1.68,0.1a1.022,1.022,0,0,1,.831.484,17.213,17.213,0,0,1,.29,4.45v2.767q0,2.883-.136,5.4a0.976,0.976,0,0,1-.425.929,7.05,7.05,0,0,1-2.3.29l-0.194.194V28.6L109.97,28.8q1.815-.136,5.273-0.135,3.264,0,4.907.116l0.193-.194V27.4l-0.193-.194q-2.087-.039-2.241-0.716a41.817,41.817,0,0,1-.251-6.153V16.723a3.24,3.24,0,0,1,.85-2.07,3.4,3.4,0,0,1,2.781-1.219q3.4,0,3.4,4.721v3.792q0,2.341-.348,6.656l0.194,0.194q2.588-.136,3.94-0.135,1.469,0,3.593.135l0.193-.213V27.442Zm20.885-16.852-0.193-.194q-1.566.058-3.748,0.058-2.028,0-3.516-.058l-0.212.194v1.142l0.212,0.194a9.649,9.649,0,0,1,1.9.184,0.514,0.514,0,0,1,.4.532,27.192,27.192,0,0,1-1.835,5.321q-1.12,2.786-2.357,5.688-0.387-.851-1.642-4.2a59.528,59.528,0,0,1-2.376-6.81,0.525,0.525,0,0,1,.425-0.522,8.529,8.529,0,0,1,1.855-.174l0.212-.213V10.589l-0.212-.194q-1.681.058-4.656,0.058-3.379,0-5.157-.058l-0.213.194v1.122l0.213,0.213a3.716,3.716,0,0,1,1.139.174,3.1,3.1,0,0,1,1.372,1.9q1.429,3.657,3.458,8.745,1.275,3.192,2.356,6.249h3.381q1.467-3.7,1.661-4.16l3.69-8.571q1.062-2.438,1.448-3.134a2.33,2.33,0,0,1,.657-0.851,4.157,4.157,0,0,1,1.546-.29l0.193-.213v-1.18ZM171.17,27.461l-0.193-.213A4.383,4.383,0,0,1,169.268,27a1.3,1.3,0,0,1-.454-1.016q-0.1-.8-0.1-3.724,0-.909.1-3.618,0.057-1.625.058-2.36a6.981,6.981,0,0,0-1.179-4.45q-1.622-1.992-5.428-1.993a9.278,9.278,0,0,0-1.758.135,14.187,14.187,0,0,0-4.79,2.67l-0.1,2.283,0.135,0.271,0.986,0.232,0.251-.135,0.734-1.8a4.027,4.027,0,0,1,2.376-.619,4.235,4.235,0,0,1,2.356.638q1.623,1.045,1.623,4.121-6.258,1.1-8.326,2.477a4.731,4.731,0,0,0-1.912,4.276,5.208,5.208,0,0,0,1.149,3.579,4.172,4.172,0,0,0,3.294,1.3,6.734,6.734,0,0,0,.773-0.039,2.531,2.531,0,0,0,1.275-.406l3.747-2.864-0.174,2.593,0.174,0.213q1.508-.1,3.149-0.1,2.1,0,3.728.1l0.212-.213V27.461Zm-10.2-1.606q-2.3,0-2.3-2.631a2.819,2.819,0,0,1,1.111-2.448,12.723,12.723,0,0,1,4.3-1.5v4.76a3.538,3.538,0,0,1-3.11,1.819h0ZM186.247,18.7a11,11,0,0,0-4.288-1.471q-2.125-.425-2.859-0.658a2.115,2.115,0,0,1-1.642-2.148,2.316,2.316,0,0,1,.966-1.935,3.969,3.969,0,0,1,2.473-.735,4.229,4.229,0,0,1,3.535,1.548,14.683,14.683,0,0,1,.27,2.264l0.212,0.194h1.1l0.212-.194a30.92,30.92,0,0,1,.328-4.469l-0.173-.31a11.254,11.254,0,0,0-5.139-1.045,8.681,8.681,0,0,0-5.756,1.78,5.6,5.6,0,0,0-2.029,4.508,4.688,4.688,0,0,0,1.642,3.889,11.084,11.084,0,0,0,4.27,1.548,20.542,20.542,0,0,1,2.607.658,2.271,2.271,0,0,1,1.546,2.341,2.722,2.722,0,0,1-1.024,2.225,4.19,4.19,0,0,1-2.724.832,5.2,5.2,0,0,1-4.308-2.109,20.643,20.643,0,0,1-.173-2.554l-0.232-.213h-1.14l-0.193.213-0.1,2.438q-0.039.987-.212,2.767l0.212,0.29a16.337,16.337,0,0,0,5.757,1.161,9.427,9.427,0,0,0,6.133-1.906,6.149,6.149,0,0,0,2.347-5.021,4.678,4.678,0,0,0-1.623-3.889h0ZM196.686,1.206a2.934,2.934,0,0,0-4.172,0,2.9,2.9,0,0,0-.879,2.148,2.908,2.908,0,0,0,.869,2.119,2.935,2.935,0,0,0,4.192,0,2.9,2.9,0,0,0,.869-2.119A2.9,2.9,0,0,0,196.686,1.206Zm3.545,26.217-0.212-.194a7.053,7.053,0,0,1-2.3-.29,0.976,0.976,0,0,1-.425-0.929q-0.135-2.515-.135-3.928V15.91q0-2.418.251-5.94l-0.406-.252a32.058,32.058,0,0,1-7.475,1.606l-0.194.213v1.084l0.194,0.193c0.965,0.039,1.526.071,1.68,0.1a0.946,0.946,0,0,1,.831.484,18.136,18.136,0,0,1,.289,4.45v2.767q0,2.883-.135,5.4a0.976,0.976,0,0,1-.425.929,7.05,7.05,0,0,1-2.3.29l-0.194.194V28.6l0.194,0.194q1.815-.136,5.273-0.135t5.293,0.135l0.193-.194v-1.18Zm21.3-16.833-0.193-.194q-1.565.058-3.747,0.058-2.03,0-3.516-.058l-0.213.194v1.142l0.213,0.194a9.67,9.67,0,0,1,1.9.184,0.515,0.515,0,0,1,.4.532,27.156,27.156,0,0,1-1.836,5.321q-1.12,2.786-2.356,5.688-0.387-.851-1.642-4.2a59.528,59.528,0,0,1-2.376-6.81,0.524,0.524,0,0,1,.425-0.522,8.517,8.517,0,0,1,1.854-.174l0.213-.213V10.589l-0.213-.194q-1.68.058-4.655,0.058-3.381,0-5.158-.058l-0.212.194v1.122l0.212,0.213a3.729,3.729,0,0,1,1.14.174,3.107,3.107,0,0,1,1.371,1.9q1.43,3.657,3.458,8.745,1.275,3.192,2.357,6.249h3.38q1.469-3.7,1.662-4.16l3.689-8.571q1.062-2.438,1.449-3.134a2.308,2.308,0,0,1,.657-0.851,4.145,4.145,0,0,1,1.545-.29l0.193-.213v-1.18Zm15.195,1.316a7.029,7.029,0,0,0-5.351-1.993,11.225,11.225,0,0,0-6.742,2.747q-2.568,1.993-2.569,7.391,0,4.547,2.405,7a9.018,9.018,0,0,0,6.752,2.457,11.166,11.166,0,0,0,6.123-1.8L238.2,25.8l-0.464-.561a10.183,10.183,0,0,1-4.4,1.277,5.635,5.635,0,0,1-4.481-1.993,7.305,7.305,0,0,1-1.758-4.7q0.773,0,2.3-.029t2.28-.029a26.516,26.516,0,0,0,6.761-.7l0.212-.271q0.019-.657.02-0.987a8.287,8.287,0,0,0-1.932-5.9h0ZM233.6,17.69a18.382,18.382,0,0,1-2.666.174,30.257,30.257,0,0,1-3.979-.174V17.264q0-5.185,3.419-5.185,3.244,0,3.245,5.224c0,0.077-.007.206-0.019,0.387h0Zm37.378-2.07a5.826,5.826,0,0,0-2.936-2.244,11.187,11.187,0,0,0-2.106-.561q-1.854-.329-2.26-0.387a15.571,15.571,0,0,1-4.926-1.3,3.622,3.622,0,0,1-1.6-3.27,4.34,4.34,0,0,1,1.41-3.347A5.849,5.849,0,0,1,262.65,3.14a8.534,8.534,0,0,1,3.3.658,4.563,4.563,0,0,1,2.086,1.548,23.612,23.612,0,0,1,.193,3.018l0.193,0.193h1.217l0.213-.193a33.534,33.534,0,0,1,.56-5.534l-0.135-.464a15.81,15.81,0,0,0-7.3-1.451q-5.023,0-7.843,2.477a8.03,8.03,0,0,0-2.666,6.327,6.547,6.547,0,0,0,2.454,5.63q1.621,1.2,6.78,1.993a11.669,11.669,0,0,1,3.3.871,3.677,3.677,0,0,1,2.067,3.541,5.842,5.842,0,0,1-.753,2.844q-1.469,2.67-5.293,2.67a8.68,8.68,0,0,1-3.9-.929,5.555,5.555,0,0,1-2.492-2.128,23.172,23.172,0,0,1-.232-2.863V20.9l-0.174-.193h-1.236L252.8,20.9a28.378,28.378,0,0,1-.541,6.327l0.232,0.426a18.333,18.333,0,0,0,7.958,1.857,14.777,14.777,0,0,0,5.622-.967,9.491,9.491,0,0,0,4.153-3.192,9.176,9.176,0,0,0,1.816-5.63,7.416,7.416,0,0,0-1.063-4.1h0Zm23.177-2.031q-1.738-3.676-6.53-3.676a4.836,4.836,0,0,0-2.917.716q-1.97,1.606-3.264,2.689,0.174-2.515.174-3.347l-0.425-.252a32.34,32.34,0,0,1-7.476,1.606l-0.193.213v1.084l0.193,0.193q1.469,0.058,1.7.1a0.924,0.924,0,0,1,.8.455,6.235,6.235,0,0,1,.2,1.616q0.117,2.67.116,2.863V29.086l-0.038,3q-0.02,1.8-.078,2.96a17.494,17.494,0,0,1-.154,1.9,0.684,0.684,0,0,1-.232.368,5.394,5.394,0,0,1-2.241.31l-0.193.213v1.161l0.193,0.194q2.435-.155,4.868-0.155,3.322,0,5.931.155l0.193-.194v-1.2l-0.213-.193q-2.163-.155-2.472-0.232a0.927,0.927,0,0,1-.522-0.252,2.2,2.2,0,0,1-.212-1.18V28.68a9.662,9.662,0,0,0,3.361.619,5.146,5.146,0,0,0,2.9-.755q1.913-1.451,3.188-2.477a13.258,13.258,0,0,0,1.661-1.393,8.586,8.586,0,0,0,1.623-2.689,12.353,12.353,0,0,0,.85-4.547,8.958,8.958,0,0,0-.792-3.85h0Zm-4.714,9.906a4.159,4.159,0,0,1-4.211,3.27,5.246,5.246,0,0,1-3.863-1.857v-9.6a4.844,4.844,0,0,1,3.94-1.954,4.411,4.411,0,0,1,2.454.774q2.22,1.471,2.221,5.688a11.714,11.714,0,0,1-.541,3.676h0Zm22.822-11.589a7.031,7.031,0,0,0-5.351-1.993,11.225,11.225,0,0,0-6.742,2.747q-2.57,1.993-2.569,7.391,0,4.547,2.405,7a9.016,9.016,0,0,0,6.751,2.457,11.172,11.172,0,0,0,6.124-1.8l0.85-1.915-0.464-.561a10.186,10.186,0,0,1-4.4,1.277,5.637,5.637,0,0,1-4.482-1.993,7.316,7.316,0,0,1-1.758-4.7q0.773,0,2.3-.029t2.28-.029a26.516,26.516,0,0,0,6.761-.7l0.212-.271q0.019-.657.019-0.987a8.291,8.291,0,0,0-1.931-5.9h0Zm-3.13,5.785a18.362,18.362,0,0,1-2.666.174,30.267,30.267,0,0,1-3.979-.174V17.264q0-5.185,3.419-5.185,3.246,0,3.246,5.224c0,0.077-.007.206-0.02,0.387h0Zm22.021,8.087a6.542,6.542,0,0,1-3.265.793,5.516,5.516,0,0,1-4.732-2.3,10.063,10.063,0,0,1-1.642-6.095q0-5.321,4.1-5.321,2.415,0,3.264,1.509a17.854,17.854,0,0,1,.271,2.4l0.193,0.194H330.5l0.193-.194q0.117-2.264.174-2.593l0.213-1.316q0.251-1.548.27-1.8l-0.193-.348a10.39,10.39,0,0,0-4.346-.793,7.972,7.972,0,0,0-2.869.387,25.658,25.658,0,0,0-3.719,2.361,10.1,10.1,0,0,0-1.835,1.529q-1.758,2.071-1.758,6.056a9.642,9.642,0,0,0,2.28,6.791,8.505,8.505,0,0,0,6.587,2.477,11.116,11.116,0,0,0,5.177-1.374l0.85-1.916Zm9.629-24.572a2.935,2.935,0,0,0-4.173,0,2.9,2.9,0,0,0-.879,2.148,2.905,2.905,0,0,0,.87,2.119,2.934,2.934,0,0,0,4.191,0,2.905,2.905,0,0,0,.87-2.119A2.9,2.9,0,0,0,340.781,1.206Zm3.544,26.217-0.212-.194a7.058,7.058,0,0,1-2.3-.29,0.976,0.976,0,0,1-.425-0.929q-0.135-2.515-.135-3.928V15.91q0-2.418.251-5.94L341.1,9.719a32.058,32.058,0,0,1-7.475,1.606l-0.193.213v1.084l0.193,0.193q1.449,0.058,1.68.1a0.946,0.946,0,0,1,.831.484,18.111,18.111,0,0,1,.29,4.45v2.767q0,2.883-.136,5.4a0.976,0.976,0,0,1-.424.929,7.064,7.064,0,0,1-2.3.29l-0.193.194V28.6l0.193,0.194q1.815-.136,5.273-0.135t5.293,0.135l0.193-.194v-1.18Zm15.882-15.517a7.029,7.029,0,0,0-5.351-1.993,11.221,11.221,0,0,0-6.741,2.747q-2.57,1.993-2.569,7.391,0,4.547,2.405,7a9.014,9.014,0,0,0,6.751,2.457,11.166,11.166,0,0,0,6.123-1.8l0.85-1.915-0.463-.561a10.186,10.186,0,0,1-4.4,1.277,5.637,5.637,0,0,1-4.481-1.993,7.305,7.305,0,0,1-1.758-4.7q0.773,0,2.3-.029t2.279-.029a26.516,26.516,0,0,0,6.761-.7l0.213-.271c0.012-.438.019-0.767,0.019-0.987a8.287,8.287,0,0,0-1.932-5.9h0Zm-3.129,5.785a18.372,18.372,0,0,1-2.666.174,30.267,30.267,0,0,1-3.979-.174V17.264q0-5.185,3.419-5.185,3.245,0,3.245,5.224c0,0.077-.006.206-0.019,0.387h0ZM377.394,18.7a11.009,11.009,0,0,0-4.288-1.471q-2.125-.425-2.859-0.658a2.115,2.115,0,0,1-1.642-2.148,2.316,2.316,0,0,1,.966-1.935,3.968,3.968,0,0,1,2.472-.735,4.227,4.227,0,0,1,3.535,1.548,14.543,14.543,0,0,1,.271,2.264l0.212,0.194h1.1l0.213-.194a30.765,30.765,0,0,1,.328-4.469l-0.174-.31a11.25,11.25,0,0,0-5.138-1.045,8.681,8.681,0,0,0-5.756,1.78,5.592,5.592,0,0,0-2.029,4.508,4.685,4.685,0,0,0,1.642,3.889,11.071,11.071,0,0,0,4.269,1.548,20.525,20.525,0,0,1,2.608.658,2.27,2.27,0,0,1,1.545,2.341,2.721,2.721,0,0,1-1.023,2.225,4.19,4.19,0,0,1-2.724.832,5.2,5.2,0,0,1-4.308-2.109,20.763,20.763,0,0,1-.174-2.554l-0.231-.213h-1.14l-0.193.213-0.1,2.438q-0.039.987-.212,2.767l0.212,0.29a16.333,16.333,0,0,0,5.757,1.161,9.429,9.429,0,0,0,6.133-1.906,6.152,6.152,0,0,0,2.347-5.021,4.678,4.678,0,0,0-1.623-3.889h0Z"/>
  <path id="Parent_Unit_Text" fill="currentColor" data-name="Parent Unit Text" class="cls-2" d="M99.4,53.771l-0.064-.064a6.991,6.991,0,0,1-.75-0.064,0.279,0.279,0,0,1-.218-0.237,14.43,14.43,0,0,1-.083-1.99v-3.4a14.43,14.43,0,0,1,.083-1.99,0.28,0.28,0,0,1,.218-0.238,7.066,7.066,0,0,1,.75-0.064l0.064-.064V45.226l-0.064-.058q-0.615.039-1.968,0.038t-1.974-.038l-0.064.058v0.437l0.064,0.064a7.066,7.066,0,0,1,.75.064,0.28,0.28,0,0,1,.218.238,14.463,14.463,0,0,1,.083,1.99v3.4a14.463,14.463,0,0,1-.083,1.99,0.28,0.28,0,0,1-.218.237,6.991,6.991,0,0,1-.75.064l-0.064.064V54.2l0.058,0.064q0.641-.039,1.974-0.039t1.98,0.039L99.4,54.2v-0.43Zm10.7-8.545-0.064-.058q-0.66.039-1.487,0.038c-0.431,0-.887-0.013-1.365-0.038l-0.064.058v0.437l0.064,0.064a7.06,7.06,0,0,1,.75.064,0.281,0.281,0,0,1,.218.238,14.549,14.549,0,0,1,.083,1.99v3.756q-3.115-3.525-5.422-6.606-0.572.039-1.436,0.038-0.552,0-1.16-.038l-0.064.058v0.437l0.064,0.064a7.124,7.124,0,0,1,.75.064,0.28,0.28,0,0,1,.217.238,14.322,14.322,0,0,1,.084,1.99v3.4a14.322,14.322,0,0,1-.084,1.99,0.279,0.279,0,0,1-.217.237,7.048,7.048,0,0,1-.75.064l-0.064.064v0.437l0.064,0.058q0.742-.039,1.48-0.039,0.635,0,1.372.039l0.064-.058V53.771l-0.064-.064a6.985,6.985,0,0,1-.75-0.064,0.279,0.279,0,0,1-.218-0.237,14.38,14.38,0,0,1-.083-1.99v-4.2q4.146,5.117,5.865,7.049,0.37,0.051,1.1.173l0.083-.058q-0.084-.873-0.083-3.756V48.019a14.38,14.38,0,0,1,.083-1.99,0.279,0.279,0,0,1,.218-0.238,7.06,7.06,0,0,1,.75-0.064l0.07-.064V45.226Zm7.075,4.674a1.931,1.931,0,0,0-.974-0.745,3.726,3.726,0,0,0-.7-0.186q-0.615-.109-0.75-0.128a5.168,5.168,0,0,1-1.634-.43,1.2,1.2,0,0,1-.532-1.085,1.44,1.44,0,0,1,.468-1.111,1.939,1.939,0,0,1,1.359-.456,2.835,2.835,0,0,1,1.1.218,1.511,1.511,0,0,1,.692.514,7.822,7.822,0,0,1,.064,1l0.064,0.064h0.4l0.071-.064a11.168,11.168,0,0,1,.185-1.836l-0.044-.154a5.247,5.247,0,0,0-2.423-.481,3.814,3.814,0,0,0-2.6.822,2.666,2.666,0,0,0-.884,2.1,2.172,2.172,0,0,0,.814,1.868,5.717,5.717,0,0,0,2.25.661,3.873,3.873,0,0,1,1.1.289,1.22,1.22,0,0,1,.686,1.175,1.945,1.945,0,0,1-.25.944,1.829,1.829,0,0,1-1.757.886,2.879,2.879,0,0,1-1.294-.308,1.842,1.842,0,0,1-.827-0.706,7.58,7.58,0,0,1-.077-0.95V51.653l-0.058-.064h-0.41l-0.064.064a9.379,9.379,0,0,1-.18,2.1l0.077,0.141a6.085,6.085,0,0,0,2.641.616,4.9,4.9,0,0,0,1.865-.321,3.141,3.141,0,0,0,1.378-1.059,3.042,3.042,0,0,0,.6-1.868,2.46,2.46,0,0,0-.353-1.361h0Zm9.139-4.757q-0.564.064-2.756,0.064h-2.6q-2.377,0-2.756-.064l-0.058.064a7.469,7.469,0,0,1,.077.957l0.013,1.1,0.071,0.064h0.4l0.064-.064q0.013-.359.058-0.7a1.319,1.319,0,0,1,.1-0.411,0.285,0.285,0,0,1,.141-0.1,6.532,6.532,0,0,1,1.34-.071h0.916q0.019,0.2.02,1.785v3.646a14.322,14.322,0,0,1-.084,1.99,0.279,0.279,0,0,1-.218.237,6.982,6.982,0,0,1-.749.064l-0.065.064v0.437l0.058,0.058q0.6-.039,1.974-0.039,1.34,0,1.974.039L124.3,54.2v-0.43l-0.065-.064a6.982,6.982,0,0,1-.749-0.064,0.279,0.279,0,0,1-.218-0.237,14.322,14.322,0,0,1-.084-1.99V47.769q0-1.56.013-1.785h0.859q1.077,0,1.2.019a0.44,0.44,0,0,1,.41.3,7.306,7.306,0,0,1,.071.963l0.07,0.058h0.4l0.064-.064,0.013-1.072a6.67,6.67,0,0,1,.083-0.982Zm4.588,8.628-0.064-.064a6.985,6.985,0,0,1-.75-0.064,0.28,0.28,0,0,1-.218-0.237,14.549,14.549,0,0,1-.083-1.99v-3.4a14.549,14.549,0,0,1,.083-1.99,0.281,0.281,0,0,1,.218-0.238,7.06,7.06,0,0,1,.75-0.064l0.064-.064V45.226l-0.064-.058q-0.615.039-1.968,0.038t-1.974-.038l-0.064.058v0.437l0.064,0.064a7.06,7.06,0,0,1,.75.064,0.279,0.279,0,0,1,.218.238,14.38,14.38,0,0,1,.083,1.99v3.4a14.38,14.38,0,0,1-.083,1.99,0.279,0.279,0,0,1-.218.237,6.985,6.985,0,0,1-.75.064l-0.064.064V54.2l0.058,0.064q0.64-.039,1.974-0.039t1.981,0.039L130.9,54.2v-0.43Zm8.62-8.628q-0.564.064-2.756,0.064h-2.6q-2.377,0-2.756-.064l-0.058.064a7.469,7.469,0,0,1,.077.957l0.013,1.1,0.07,0.064h0.4l0.064-.064q0.014-.359.058-0.7a1.319,1.319,0,0,1,.1-0.411,0.285,0.285,0,0,1,.141-0.1,6.532,6.532,0,0,1,1.34-.071h0.916q0.02,0.2.019,1.785v3.646a14.38,14.38,0,0,1-.083,1.99,0.279,0.279,0,0,1-.218.237,6.985,6.985,0,0,1-.75.064l-0.064.064v0.437l0.058,0.058q0.6-.039,1.974-0.039,1.339,0,1.974.039l0.064-.064v-0.43l-0.064-.064a6.985,6.985,0,0,1-.75-0.064,0.28,0.28,0,0,1-.218-0.237,14.549,14.549,0,0,1-.083-1.99V47.769q0-1.56.013-1.785h0.859q1.077,0,1.2.019a0.44,0.44,0,0,1,.41.3,7.306,7.306,0,0,1,.071.963l0.07,0.058h0.4l0.064-.064,0.013-1.072a6.67,6.67,0,0,1,.083-0.982Zm9.87,0.09-0.064-.064q-1.257.039-1.7,0.038c-0.393,0-.776-0.013-1.147-0.038l-0.064.064v0.43l0.064,0.064a3.615,3.615,0,0,1,.788.1,0.375,0.375,0,0,1,.224.2,2.852,2.852,0,0,1,.077.751q0.014,0.616.013,2.3v1.335a9.642,9.642,0,0,1-.058,1.066,3.146,3.146,0,0,1-.179.835,1.563,1.563,0,0,1-.41.533,2.562,2.562,0,0,1-1.75.552,2.042,2.042,0,0,1-2.147-1.079,11.315,11.315,0,0,1-.218-2.972V48.019a14.38,14.38,0,0,1,.083-1.99,0.279,0.279,0,0,1,.218-0.238,7.06,7.06,0,0,1,.75-0.064l0.064-.064v-0.43l-0.064-.064q-0.584.039-1.968,0.038-1.359,0-1.974-.038l-0.064.064v0.43l0.064,0.064a7.06,7.06,0,0,1,.75.064,0.281,0.281,0,0,1,.218.238,14.549,14.549,0,0,1,.083,1.99v1.656a15.533,15.533,0,0,0,.154,2.915,2.213,2.213,0,0,0,1.038,1.348,5.158,5.158,0,0,0,2.622.559,3.659,3.659,0,0,0,2.833-1.079,3.977,3.977,0,0,0,.75-2.722V48.719q0-1.053.019-1.611a6.669,6.669,0,0,1,.077-0.976,0.741,0.741,0,0,1,.853-0.4l0.064-.064v-0.43Zm8.44-.09q-0.564.064-2.756,0.064h-2.6q-2.379,0-2.756-.064l-0.058.064a7.469,7.469,0,0,1,.077.957l0.013,1.1,0.07,0.064h0.4l0.064-.064q0.013-.359.058-0.7a1.263,1.263,0,0,1,.1-0.411,0.285,0.285,0,0,1,.141-0.1,6.532,6.532,0,0,1,1.34-.071h0.916q0.02,0.2.019,1.785v3.646a14.38,14.38,0,0,1-.083,1.99,0.279,0.279,0,0,1-.218.237,6.985,6.985,0,0,1-.75.064l-0.064.064v0.437l0.058,0.058q0.6-.039,1.974-0.039,1.339,0,1.974.039l0.064-.064v-0.43l-0.064-.064a6.985,6.985,0,0,1-.75-0.064,0.28,0.28,0,0,1-.218-0.237,14.549,14.549,0,0,1-.083-1.99V47.769q0-1.56.013-1.785h0.859q1.077,0,1.2.019a0.44,0.44,0,0,1,.41.3,7.2,7.2,0,0,1,.07.963l0.071,0.058h0.4l0.064-.064,0.013-1.072a6.67,6.67,0,0,1,.083-0.982Zm7.395,6.876h-0.391l-0.064.071-0.154.8a1.15,1.15,0,0,1-.121.385,0.213,0.213,0,0,1-.1.071,9.959,9.959,0,0,1-2.295.148h-0.871q-0.033-.79-0.032-1.631V49.9q0.4-.032.871-0.032,0.443,0,.834.032a0.958,0.958,0,0,1,.621.183,2.033,2.033,0,0,1,.1.876l0.064,0.064h0.429l0.065-.058q-0.027-.77-0.026-1.419,0-.6.026-1.316l-0.065-.064h-0.4l-0.064.064a2.022,2.022,0,0,1-.135.867,1.278,1.278,0,0,1-.666.1l-0.84.006c-0.209,0-.483-0.011-0.82-0.032V47.839q0-1.194.07-1.868c0.38-.03.757-0.045,1.128-0.045q0.468,0,1.087.051a1.463,1.463,0,0,1,.689.141,2.629,2.629,0,0,1,.1,1l0.064,0.064h0.372l0.064-.071,0.045-.6q0.019-.237.058-0.578l0.083-.713-0.07-.051q-3.378.039-4.583,0.038-1.353,0-2-.038l-0.064.058v0.437l0.064,0.064a7.06,7.06,0,0,1,.75.064,0.281,0.281,0,0,1,.218.238,14.549,14.549,0,0,1,.083,1.99v3.255l-0.019,1.438a3.385,3.385,0,0,1-.071.854,2.21,2.21,0,0,1-.512.379l-0.032.077V54.2l0.064,0.064q0.48-.039,1.647-0.039l4.66,0.039,0.064-.064a14.344,14.344,0,0,1,.141-2.119Zm4,1.406a1.587,1.587,0,0,0,.609.777,2.116,2.116,0,0,0,1.218.3,3.21,3.21,0,0,0,1.464-.324,7.466,7.466,0,0,0,1.231-.78,3.085,3.085,0,0,0,.939-1.441,5.705,5.705,0,0,0,.352-1.929,2.008,2.008,0,0,0-.57-1.56,2.113,2.113,0,0,0-1.481-.52,3.677,3.677,0,0,0-1.717.433,4.1,4.1,0,0,0-1.324,1.04,3.608,3.608,0,0,0-.692,1.509,7.088,7.088,0,0,0-.2,1.5A2.87,2.87,0,0,0,169.229,53.425Zm1.625-3.027a3.409,3.409,0,0,1,.66-1.48,1.185,1.185,0,0,1,.868-0.379,1.071,1.071,0,0,1,.795.334,1.664,1.664,0,0,1,.327,1.175,7.875,7.875,0,0,1-.157,1.483,6,6,0,0,1-.41,1.364,1.892,1.892,0,0,1-.551.761,1.142,1.142,0,0,1-.677.212,1.041,1.041,0,0,1-.846-0.353,1.769,1.769,0,0,1-.295-1.136A7.993,7.993,0,0,1,170.854,50.4Zm5.219-1.505q0.256-.013.59-0.013c0.145,0,.339,0,0.583.013l-0.5,2.626L176.272,54q-0.231,1.22-.394,1.855a3.039,3.039,0,0,1-.273.79,0.705,0.705,0,0,1-.234.221,0.539,0.539,0,0,1-.259.067,0.762,0.762,0,0,1-.641-0.584l-0.205.039a8.07,8.07,0,0,1-.423,1.425,1.183,1.183,0,0,0,.487.116,1.3,1.3,0,0,0,.551-0.135,3.911,3.911,0,0,0,1.038-.8,5.264,5.264,0,0,0,.952-1.31,11.821,11.821,0,0,0,.766-2.141q0.3-1.053.6-2.427l0.5-2.228c0.1-.009.331-0.013,0.685-0.013q0.66,0,.885.013l0.07-.064a4.8,4.8,0,0,1,.186-0.61l-0.064-.1a6.327,6.327,0,0,1-.766.071q-0.587.032-.714,0.032h-0.148q0.109-.629.269-1.29a5.986,5.986,0,0,1,.247-0.851,0.742,0.742,0,0,1,.244-0.3,0.564,0.564,0,0,1,.336-0.112,1.324,1.324,0,0,1,.987.758l0.193-.045a11.727,11.727,0,0,1,.365-1.663,1.555,1.555,0,0,0-.577-0.109,1.431,1.431,0,0,0-.516.09,3.689,3.689,0,0,0-.7.42q-0.464.331-1.009,0.793a6.472,6.472,0,0,0-.75.713,1.822,1.822,0,0,0-.289.459,5.3,5.3,0,0,0-.192.684,3.466,3.466,0,0,1-.083.353,5.238,5.238,0,0,1-.673.237q-0.436.129-.583,0.18l-0.071.071-0.045.231Zm13.073-3.724q-3.441.039-4.32,0.038-1.359,0-1.974-.038l-0.064.058v0.437l0.064,0.064a7.06,7.06,0,0,1,.75.064,0.281,0.281,0,0,1,.218.238,14.638,14.638,0,0,1,.083,1.99v3.4a14.637,14.637,0,0,1-.083,1.99,0.28,0.28,0,0,1-.218.237,6.985,6.985,0,0,1-.75.064l-0.064.064v0.437l0.064,0.058q0.974-.045,1.525-0.039l2.577,0.039,0.071-.064v-0.43l-0.064-.064c-0.582-.034-0.887-0.055-0.917-0.064a0.279,0.279,0,0,1-.218-0.237,14.466,14.466,0,0,1-.083-1.99V49.887q0.345-.019.788-0.019c0.244,0,.491.011,0.744,0.032a0.766,0.766,0,0,1,.66.27,2.832,2.832,0,0,1,.058.79l0.064,0.064h0.429l0.064-.058q-0.026-.77-0.025-1.419,0-.6.025-1.316l-0.064-.064h-0.4l-0.064.064a2.249,2.249,0,0,1-.116.848,0.267,0.267,0,0,1-.231.1q-0.883.032-1.211,0.026l-0.724-.019V48.314q0-1.695.07-2.35,0.564-.039.827-0.038a3.785,3.785,0,0,1,1.788.2,2.811,2.811,0,0,1,.1.989l0.064,0.064h0.372l0.064-.071,0.038-.514q0.033-.4.058-0.642l0.083-.732Zm9.293,1.027a4.868,4.868,0,0,0-3.48-1.175,5.818,5.818,0,0,0-2.635.539,4.362,4.362,0,0,0-2.352,4.276,4.614,4.614,0,0,0,1.25,3.438,4.68,4.68,0,0,0,3.442,1.236,4.647,4.647,0,0,0,5.038-5.027,4.306,4.306,0,0,0-1.263-3.287h0Zm-1.045,5.772a2.415,2.415,0,0,1-2.455,1.8,2.5,2.5,0,0,1-2.262-1.188,5.8,5.8,0,0,1-.731-3.133,5.742,5.742,0,0,1,.32-1.971,2.446,2.446,0,0,1,2.526-1.714,2.482,2.482,0,0,1,2.189,1.095,5.169,5.169,0,0,1,.747,2.956,6.514,6.514,0,0,1-.334,2.151h0ZM209.046,46.2a4.869,4.869,0,0,0-3.481-1.175,5.813,5.813,0,0,0-2.634.539,4.362,4.362,0,0,0-2.352,4.276,4.617,4.617,0,0,0,1.249,3.438,4.684,4.684,0,0,0,3.442,1.236,5.01,5.01,0,0,0,3.66-1.31,4.96,4.96,0,0,0,1.378-3.717,4.305,4.305,0,0,0-1.262-3.287h0ZM208,51.967a2.415,2.415,0,0,1-2.455,1.8,2.507,2.507,0,0,1-2.263-1.188,5.8,5.8,0,0,1-.73-3.133,5.718,5.718,0,0,1,.32-1.971,2.446,2.446,0,0,1,2.526-1.714,2.482,2.482,0,0,1,2.189,1.095,5.177,5.177,0,0,1,.746,2.956A6.514,6.514,0,0,1,208,51.967h0Zm12.324-5.129a3.258,3.258,0,0,0-1.525-1.31,6.779,6.779,0,0,0-2.557-.379q-0.6,0-1.2.019-1.2.039-2.692,0.038-0.615,0-1.3-.038l-0.064.058v0.437l0.064,0.064a7.06,7.06,0,0,1,.75.064,0.279,0.279,0,0,1,.218.238,14.549,14.549,0,0,1,.083,1.99v3.255l-0.019,1.438a3.4,3.4,0,0,1-.07.854,2.256,2.256,0,0,1-.513.379l-0.032.077V54.2l0.064,0.064q0.6-.051,1.525-0.039l2.263,0.039a6.381,6.381,0,0,0,2.468-.392,4.767,4.767,0,0,0,1.679-1.085,4.921,4.921,0,0,0,1.417-3.608,4.414,4.414,0,0,0-.565-2.343h0Zm-1.884,4.975a2.865,2.865,0,0,1-1.263,1.374,4.511,4.511,0,0,1-2.012.372,7.316,7.316,0,0,1-1.154-.09,11.254,11.254,0,0,1-.051-1.245l-0.013-2.806q0-2.76.064-3.48a7.529,7.529,0,0,1,1.141-.083,6.492,6.492,0,0,1,1.788.192,2.424,2.424,0,0,1,1.122.706,3.962,3.962,0,0,1,.859,2.735,5.305,5.305,0,0,1-.481,2.324h0Zm12.278,1.046a2.972,2.972,0,0,1-1.006.552c-0.111,0-.167-0.083-0.167-0.25a10.416,10.416,0,0,1,.25-1.412l0.475-2.17a9.6,9.6,0,0,1,.391-1.4l-0.212-.154-0.589.347a2.9,2.9,0,0,0-.706-0.254,3.085,3.085,0,0,0-.666-0.087,2.08,2.08,0,0,0-.715.116,5.458,5.458,0,0,0-1.073.668,7.273,7.273,0,0,0-.984.806,2.274,2.274,0,0,0-.4.664,10.884,10.884,0,0,0-.506,1.624,6.528,6.528,0,0,0-.179,1.406,1.554,1.554,0,0,0,.214.95,0.641,0.641,0,0,0,.51.263,2.493,2.493,0,0,0,1.4-.709,9.836,9.836,0,0,0,1.935-2.558q-0.339,1.355-.442,1.868a4.373,4.373,0,0,0-.1.783,0.756,0.756,0,0,0,.118.437,0.372,0.372,0,0,0,.324.173,1.593,1.593,0,0,0,.721-0.238,18.154,18.154,0,0,0,1.593-1.091l0.025-.083-0.141-.25h-0.077Zm-2.253-2.035a7.523,7.523,0,0,1-1.137,1.791,2.075,2.075,0,0,1-.962.809q-0.256,0-.256-0.482a8.97,8.97,0,0,1,.359-2.035,5.739,5.739,0,0,1,.666-1.772,0.975,0.975,0,0,1,.808-0.4,2.351,2.351,0,0,1,1.051.289A5.84,5.84,0,0,1,228.466,50.825Zm4.572,3.4a9.832,9.832,0,0,1,.6-2.343,6.764,6.764,0,0,1,.564-1.1,5.813,5.813,0,0,1,.711-0.908,2.72,2.72,0,0,1,.59-0.5,0.769,0.769,0,0,1,.317-0.1,0.227,0.227,0,0,1,.25.263,11.253,11.253,0,0,1-.493,2.215,10.1,10.1,0,0,0-.449,2.119,1.053,1.053,0,0,0,.093.433,0.358,0.358,0,0,0,.362.209,1.905,1.905,0,0,0,.814-0.234,11.9,11.9,0,0,0,1.57-1.062l0.02-.084-0.141-.25-0.077-.006a2.219,2.219,0,0,1-.942.526c-0.1,0-.154-0.079-0.154-0.238a4.268,4.268,0,0,1,.08-0.575q0.08-.446.3-1.242,0.327-1.2.474-1.82a4.486,4.486,0,0,0,.148-0.953,0.513,0.513,0,0,0-.545-0.61,3.134,3.134,0,0,0-1.785.95,8.053,8.053,0,0,0-1.824,2.292q0.366-1.38.481-1.955a4.823,4.823,0,0,0,.115-0.876,0.343,0.343,0,0,0-.352-0.417,1.021,1.021,0,0,0-.327.061,2.924,2.924,0,0,0-.539.289q-0.358.228-.8,0.571t-0.775.626l-0.007.083,0.128,0.225,0.09,0.006a2.558,2.558,0,0,1,.923-0.539c0.1,0,.148.073,0.148,0.218a9.351,9.351,0,0,1-.145,1.1q-0.144.867-.458,2.038a16.8,16.8,0,0,1-.513,1.672l0.167,0.16a6.308,6.308,0,0,1,1.384-.244h0Zm10.133-8.583a0.449,0.449,0,0,1,.285.083,0.319,0.319,0,0,1,.087.25,6.582,6.582,0,0,1-.09.841l-0.205,1.355a3.6,3.6,0,0,0-.878-0.135,2.081,2.081,0,0,0-.725.125,5.8,5.8,0,0,0-1.016.568,8.251,8.251,0,0,0-.878.629,2.744,2.744,0,0,0-.48.758,6.937,6.937,0,0,0-.484,1.438,7.2,7.2,0,0,0-.205,1.663,1.765,1.765,0,0,0,.217.944,0.674,0.674,0,0,0,.6.347,2.8,2.8,0,0,0,1.647-.957,8.811,8.811,0,0,0,1.743-2.356q-0.2.867-.32,1.361a6.45,6.45,0,0,0-.244,1.316,0.756,0.756,0,0,0,.125.43,0.4,0.4,0,0,0,.35.186,1.426,1.426,0,0,0,.618-0.189,14.762,14.762,0,0,0,1.561-1.095l0.019-.084-0.135-.25-0.076-.006a2.932,2.932,0,0,1-.9.546q-0.135,0-.135-0.218a3.319,3.319,0,0,1,.032-0.366q0.065-.494.462-2.478,0.544-2.7.73-3.569l0.462-2-0.16-.141a12.561,12.561,0,0,1-2.609.6l-0.064.058-0.039.276,0.052,0.058Q242.972,45.631,243.171,45.637Zm-0.2,3.871a6.465,6.465,0,0,1-.449,1.345,7.044,7.044,0,0,1-.823,1.393,5.009,5.009,0,0,1-.83.915,1,1,0,0,1-.551.257q-0.238,0-.238-0.456a7.422,7.422,0,0,1,.18-1.489,11.07,11.07,0,0,1,.471-1.64,2.276,2.276,0,0,1,.526-0.95,1.242,1.242,0,0,1,.727-0.17,2.526,2.526,0,0,1,1.1.225Zm14.439,4.282-0.058-.071a1.862,1.862,0,0,1-.609-0.077,0.947,0.947,0,0,1-.359-0.514l-3.4-8.006h-0.91q-0.378.982-.564,1.47l-1.673,4.192q-0.981,2.452-1.132,2.677a1.063,1.063,0,0,1-.81.263l-0.071.064v0.417l0.064,0.058q1.038-.039,1.3-0.039,0.34,0,1.526.039l0.064-.064V53.791l-0.064-.064q-0.487-.026-0.654-0.051a0.289,0.289,0,0,1-.3-0.289,4.956,4.956,0,0,1,.32-1.117l0.282-.783q0.987-.013,1.487-0.013,0.924,0,1.808.013l0.519,1.355a2.361,2.361,0,0,1,.18.6q0,0.231-.353.25l-0.558.032-0.064.071v0.4l0.058,0.064q1.012-.039,2.192-0.039,0.3,0,1.718.039l0.058-.064V53.791Zm-5.385-3.024q-0.839,0-1.365-.019l1.314-3.364,1.372,3.364q-0.507.019-1.321,0.019h0Zm15.677-.09-0.064-.064-1.763.019q-1.018.006-1.948-.019l-0.071.064v0.4l0.071,0.064q0.911,0.058,1.083.1a0.307,0.307,0,0,1,.244.148,3.612,3.612,0,0,1,.045.77q0,0.783-.045,1.233a3.843,3.843,0,0,1-1.622.359,3.151,3.151,0,0,1-2.57-1.22,5.073,5.073,0,0,1-.551-4.924,3.158,3.158,0,0,1,3.134-1.836,4.337,4.337,0,0,1,1.577.282,2.131,2.131,0,0,1,.961.655,3.456,3.456,0,0,1,.064.536c0.017,0.255.026,0.423,0.026,0.5l0.064,0.064h0.385l0.07-.064a10.85,10.85,0,0,1,.276-1.965l-0.058-.115a6.417,6.417,0,0,0-1.365-.424,9.916,9.916,0,0,0-2.077-.225,6.593,6.593,0,0,0-2.916.565,4.256,4.256,0,0,0-2.507,4.128,4.5,4.5,0,0,0,1.42,3.508,5.319,5.319,0,0,0,3.715,1.287,11.106,11.106,0,0,0,3.884-.809q-0.051-.533-0.051-1.078a6.587,6.587,0,0,1,.064-1.3,0.611,0.611,0,0,1,.461-0.266l0.064-.071V50.677Zm9.485,3.114-0.064-.064a0.745,0.745,0,0,1-.41-0.1,7.029,7.029,0,0,1-1.16-1.534l-0.987-1.522q-0.36-.552-0.68-1.091A2.567,2.567,0,0,0,275.849,47a2.161,2.161,0,0,0-.116-0.745,1.522,1.522,0,0,0-.936-0.912,4.886,4.886,0,0,0-1.628-.2q-0.48,0-1.448.038-0.487.019-1.269,0.019-1.347,0-1.974-.038l-0.065.058v0.437l0.065,0.064a7.057,7.057,0,0,1,.749.064,0.279,0.279,0,0,1,.218.238,14.322,14.322,0,0,1,.084,1.99v3.4a14.322,14.322,0,0,1-.084,1.99,0.279,0.279,0,0,1-.218.237,6.982,6.982,0,0,1-.749.064l-0.065.064v0.437l0.065,0.058q0.6-.039,1.974-0.039,1.332,0,1.974.039l0.058-.064v-0.43l-0.065-.064a6.982,6.982,0,0,1-.749-0.064,0.279,0.279,0,0,1-.218-0.237,14.322,14.322,0,0,1-.084-1.99V48.058q0-1.515.064-2.144a3.594,3.594,0,0,1,.616-0.051,2.74,2.74,0,0,1,1.121.18,1.459,1.459,0,0,1,.808,1.464,2.008,2.008,0,0,1-.276,1.072,1.7,1.7,0,0,1-.6.629,2.046,2.046,0,0,1-.987.2c-0.047,0-.12,0-0.218-0.006l-0.071.218a1.789,1.789,0,0,1,.379.392l0.711,1.085,1.59,2.658a1.791,1.791,0,0,1,.243.514c0.474-.026.821-0.039,1.039-0.039q0.217,0,1.1.032l0.243,0.007,0.064-.064V53.791Zm4.447-.019-0.064-.064a6.985,6.985,0,0,1-.75-0.064,0.28,0.28,0,0,1-.218-0.237,14.549,14.549,0,0,1-.083-1.99v-3.4a14.549,14.549,0,0,1,.083-1.99,0.281,0.281,0,0,1,.218-0.238,7.06,7.06,0,0,1,.75-0.064l0.064-.064V45.226l-0.064-.058q-0.615.039-1.968,0.038t-1.974-.038l-0.064.058v0.437l0.064,0.064a7.06,7.06,0,0,1,.75.064,0.279,0.279,0,0,1,.218.238,14.38,14.38,0,0,1,.083,1.99v3.4a14.38,14.38,0,0,1-.083,1.99,0.279,0.279,0,0,1-.218.237,6.985,6.985,0,0,1-.75.064l-0.064.064V54.2l0.058,0.064q0.641-.039,1.974-0.039t1.981,0.039l0.057-.064v-0.43Zm9.1-.815a5.215,5.215,0,0,1-2.506.661,3.561,3.561,0,0,1-2.25-.655,4.193,4.193,0,0,1-1.577-3.518,3.876,3.876,0,0,1,.885-2.683,3.107,3.107,0,0,1,2.442-.989,2.929,2.929,0,0,1,2.314.905,8.952,8.952,0,0,1,.07,1.078l0.064,0.071h0.378l0.058-.064a10.7,10.7,0,0,1,.269-2.074l-0.083-.1a8.561,8.561,0,0,0-3.07-.571,5.61,5.61,0,0,0-3.9,1.29,4.286,4.286,0,0,0-1.4,3.358,5.248,5.248,0,0,0,.57,2.42q1.231,2.414,4.577,2.414a6.168,6.168,0,0,0,3.025-.745l0.3-.655Zm10.113-7.723-0.064-.064q-1.257.039-1.7,0.038-0.59,0-1.147-.038l-0.064.064v0.43l0.064,0.064a3.615,3.615,0,0,1,.788.1,0.377,0.377,0,0,1,.225.2,2.945,2.945,0,0,1,.077.751q0.012,0.616.012,2.3v1.335a9.893,9.893,0,0,1-.057,1.066,3.179,3.179,0,0,1-.18.835,1.551,1.551,0,0,1-.41.533,2.562,2.562,0,0,1-1.75.552,2.042,2.042,0,0,1-2.147-1.079,11.362,11.362,0,0,1-.218-2.972V48.019a14.549,14.549,0,0,1,.083-1.99,0.281,0.281,0,0,1,.218-0.238,7.06,7.06,0,0,1,.75-0.064l0.064-.064v-0.43l-0.064-.064q-0.584.039-1.968,0.038-1.359,0-1.974-.038l-0.064.064v0.43l0.064,0.064a7.06,7.06,0,0,1,.75.064,0.279,0.279,0,0,1,.218.238,14.38,14.38,0,0,1,.083,1.99v1.656a15.627,15.627,0,0,0,.154,2.915,2.218,2.218,0,0,0,1.039,1.348,5.157,5.157,0,0,0,2.621.559,3.658,3.658,0,0,0,2.833-1.079,3.977,3.977,0,0,0,.75-2.722V48.719q0-1.053.019-1.611a6.669,6.669,0,0,1,.077-0.976,0.742,0.742,0,0,1,.853-0.4l0.064-.064v-0.43Zm7.408,6.786h-0.391l-0.064.071-0.154.8a1.15,1.15,0,0,1-.121.385,0.213,0.213,0,0,1-.1.071,9.959,9.959,0,0,1-2.295.148h-0.871q-0.033-.79-0.032-1.631V48.019a14.38,14.38,0,0,1,.083-1.99,0.279,0.279,0,0,1,.218-0.238,7.06,7.06,0,0,1,.75-0.064l0.064-.058V45.226l-0.064-.058q-0.687.039-2.006,0.038-1.276,0-1.936-.038l-0.064.058v0.437l0.064,0.064a7.06,7.06,0,0,1,.75.064,0.281,0.281,0,0,1,.218.238,14.549,14.549,0,0,1,.083,1.99v3.255l-0.019,1.438a3.328,3.328,0,0,1-.071.854,2.2,2.2,0,0,1-.513.379l-0.032.077V54.2l0.064,0.064q0.482-.039,1.648-0.039l4.66,0.039,0.064-.064a14.344,14.344,0,0,1,.141-2.119Zm8.017-6.876q-0.564.064-2.756,0.064h-2.6q-2.378,0-2.756-.064l-0.057.064a7.648,7.648,0,0,1,.076.957l0.013,1.1,0.071,0.064h0.4l0.064-.064q0.012-.359.057-0.7a1.319,1.319,0,0,1,.1-0.411,0.284,0.284,0,0,1,.142-0.1,6.519,6.519,0,0,1,1.339-.071h0.917q0.019,0.2.019,1.785v3.646a14.549,14.549,0,0,1-.083,1.99,0.28,0.28,0,0,1-.218.237,6.985,6.985,0,0,1-.75.064l-0.064.064v0.437l0.057,0.058q0.6-.039,1.975-0.039,1.34,0,1.974.039l0.064-.064v-0.43l-0.064-.064a6.985,6.985,0,0,1-.75-0.064,0.279,0.279,0,0,1-.218-0.237,14.38,14.38,0,0,1-.083-1.99V47.769q0-1.56.012-1.785h0.859q1.077,0,1.205.019a0.44,0.44,0,0,1,.41.3,7.117,7.117,0,0,1,.071.963l0.07,0.058h0.4l0.064-.064,0.013-1.072a6.535,6.535,0,0,1,.084-0.982Zm9.87,0.09-0.064-.064q-1.257.039-1.7,0.038-0.589,0-1.147-.038l-0.064.064v0.43l0.064,0.064a3.615,3.615,0,0,1,.788.1,0.375,0.375,0,0,1,.225.2,2.945,2.945,0,0,1,.077.751q0.012,0.616.013,2.3v1.335a9.892,9.892,0,0,1-.058,1.066,3.179,3.179,0,0,1-.18.835,1.551,1.551,0,0,1-.41.533,2.562,2.562,0,0,1-1.75.552,2.043,2.043,0,0,1-2.147-1.079,11.362,11.362,0,0,1-.218-2.972V48.019a14.549,14.549,0,0,1,.083-1.99,0.281,0.281,0,0,1,.218-0.238,7.092,7.092,0,0,1,.75-0.064l0.064-.064v-0.43l-0.064-.064q-0.584.039-1.967,0.038-1.359,0-1.975-.038l-0.064.064v0.43l0.064,0.064a7.06,7.06,0,0,1,.75.064,0.279,0.279,0,0,1,.218.238,14.322,14.322,0,0,1,.084,1.99v1.656a15.664,15.664,0,0,0,.153,2.915,2.218,2.218,0,0,0,1.039,1.348,5.157,5.157,0,0,0,2.621.559,3.658,3.658,0,0,0,2.833-1.079,3.977,3.977,0,0,0,.75-2.722V48.719q0-1.053.02-1.611a6.721,6.721,0,0,1,.076-0.976,0.742,0.742,0,0,1,.853-0.4l0.064-.064v-0.43Zm9.2,8.558-0.064-.064a0.749,0.749,0,0,1-.411-0.1,7.029,7.029,0,0,1-1.16-1.534l-0.987-1.522q-0.358-.552-0.679-1.091A2.567,2.567,0,0,0,334,47a2.163,2.163,0,0,0-.115-0.745,1.522,1.522,0,0,0-.936-0.912,4.89,4.89,0,0,0-1.628-.2q-0.482,0-1.449.038-0.488.019-1.269,0.019-1.345,0-1.974-.038l-0.064.058v0.437l0.064,0.064a7.06,7.06,0,0,1,.75.064,0.281,0.281,0,0,1,.218.238,14.549,14.549,0,0,1,.083,1.99v3.4a14.549,14.549,0,0,1-.083,1.99,0.28,0.28,0,0,1-.218.237,6.985,6.985,0,0,1-.75.064l-0.064.064v0.437l0.064,0.058q0.6-.039,1.974-0.039,1.334,0,1.974.039l0.058-.064v-0.43l-0.064-.064a6.985,6.985,0,0,1-.75-0.064,0.279,0.279,0,0,1-.218-0.237,14.38,14.38,0,0,1-.083-1.99V48.058q0-1.515.064-2.144a3.574,3.574,0,0,1,.615-0.051,2.749,2.749,0,0,1,1.122.18,1.459,1.459,0,0,1,.807,1.464,2.017,2.017,0,0,1-.275,1.072,1.714,1.714,0,0,1-.6.629,2.046,2.046,0,0,1-.987.2c-0.047,0-.119,0-0.218-0.006l-0.07.218a1.805,1.805,0,0,1,.378.392l0.711,1.085,1.59,2.658a1.832,1.832,0,0,1,.244.514q0.711-.039,1.038-0.039c0.145,0,.511.011,1.1,0.032l0.244,0.007,0.064-.064V53.791Zm9.754,0-0.058-.071a1.862,1.862,0,0,1-.609-0.077,0.952,0.952,0,0,1-.359-0.514l-3.4-8.006h-0.91q-0.378.982-.564,1.47l-1.673,4.192q-0.981,2.452-1.131,2.677a1.067,1.067,0,0,1-.811.263l-0.071.064v0.417l0.065,0.058q1.038-.039,1.3-0.039,0.339,0,1.525.039l0.064-.064V53.791l-0.064-.064q-0.488-.026-0.654-0.051a0.29,0.29,0,0,1-.3-0.289,4.925,4.925,0,0,1,.321-1.117l0.282-.783q0.987-.013,1.487-0.013,0.923,0,1.807.013l0.519,1.355a2.361,2.361,0,0,1,.18.6q0,0.231-.353.25l-0.557.032-0.064.071v0.4l0.057,0.064q1.012-.039,2.192-0.039,0.3,0,1.718.039L345.1,54.2V53.791Zm-5.384-3.024q-0.84,0-1.365-.019l1.314-3.364,1.371,3.364c-0.337.013-.778,0.019-1.32,0.019h0Zm12.767,1.252h-0.391l-0.065.071-0.153.8a1.145,1.145,0,0,1-.122.385,0.213,0.213,0,0,1-.1.071,9.954,9.954,0,0,1-2.294.148h-0.872q-0.031-.79-0.032-1.631V48.019a14.549,14.549,0,0,1,.083-1.99,0.281,0.281,0,0,1,.218-0.238,7.06,7.06,0,0,1,.75-0.064l0.064-.058V45.226l-0.064-.058q-0.685.039-2.006,0.038-1.276,0-1.936-.038l-0.064.058v0.437l0.064,0.064a7.06,7.06,0,0,1,.75.064,0.279,0.279,0,0,1,.218.238,14.549,14.549,0,0,1,.083,1.99v3.255l-0.019,1.438a3.4,3.4,0,0,1-.07.854,2.256,2.256,0,0,1-.513.379l-0.032.077V54.2l0.064,0.064q0.48-.039,1.647-0.039l4.66,0.039,0.064-.064a14.344,14.344,0,0,1,.141-2.119ZM362.641,49.9a1.934,1.934,0,0,0-.975-0.745,3.7,3.7,0,0,0-.7-0.186q-0.615-.109-0.75-0.128a5.169,5.169,0,0,1-1.635-.43,1.2,1.2,0,0,1-.532-1.085,1.44,1.44,0,0,1,.468-1.111,1.943,1.943,0,0,1,1.359-.456,2.832,2.832,0,0,1,1.1.218,1.511,1.511,0,0,1,.692.514,7.755,7.755,0,0,1,.065,1l0.064,0.064h0.4l0.071-.064a11.049,11.049,0,0,1,.186-1.836L362.41,45.5a5.244,5.244,0,0,0-2.423-.481,3.812,3.812,0,0,0-2.6.822,2.664,2.664,0,0,0-.885,2.1,2.174,2.174,0,0,0,.814,1.868,5.717,5.717,0,0,0,2.25.661,3.864,3.864,0,0,1,1.1.289,1.22,1.22,0,0,1,.686,1.175,1.934,1.934,0,0,1-.25.944,1.827,1.827,0,0,1-1.756.886,2.88,2.88,0,0,1-1.295-.308,1.848,1.848,0,0,1-.827-0.706,7.776,7.776,0,0,1-.077-0.95V51.653l-0.057-.064h-0.411l-0.064.064a9.45,9.45,0,0,1-.179,2.1l0.077,0.141a6.081,6.081,0,0,0,2.64.616,4.9,4.9,0,0,0,1.866-.321,3.153,3.153,0,0,0,1.378-1.059,3.047,3.047,0,0,0,.6-1.868,2.46,2.46,0,0,0-.352-1.361h0Zm9.619,3.056a5.212,5.212,0,0,1-2.506.661,3.563,3.563,0,0,1-2.25-.655,4.192,4.192,0,0,1-1.576-3.518,3.876,3.876,0,0,1,.884-2.683,3.11,3.11,0,0,1,2.442-.989,2.926,2.926,0,0,1,2.314.905,8.891,8.891,0,0,1,.071,1.078l0.064,0.071h0.378l0.058-.064a10.623,10.623,0,0,1,.269-2.074l-0.084-.1a8.553,8.553,0,0,0-3.07-.571,5.609,5.609,0,0,0-3.9,1.29,4.284,4.284,0,0,0-1.4,3.358,5.249,5.249,0,0,0,.571,2.42q1.23,2.414,4.576,2.414a6.169,6.169,0,0,0,3.026-.745l0.3-.655Zm4.832,0.815-0.064-.064a6.985,6.985,0,0,1-.75-0.064,0.279,0.279,0,0,1-.218-0.237,14.38,14.38,0,0,1-.083-1.99v-3.4a14.38,14.38,0,0,1,.083-1.99,0.279,0.279,0,0,1,.218-0.238,7.06,7.06,0,0,1,.75-0.064l0.064-.064V45.226l-0.064-.058q-0.615.039-1.968,0.038t-1.974-.038l-0.064.058v0.437l0.064,0.064a7.06,7.06,0,0,1,.75.064,0.281,0.281,0,0,1,.218.238,14.549,14.549,0,0,1,.083,1.99v3.4a14.549,14.549,0,0,1-.083,1.99,0.28,0.28,0,0,1-.218.237,6.985,6.985,0,0,1-.75.064l-0.064.064V54.2l0.058,0.064q0.641-.039,1.974-0.039t1.98,0.039l0.058-.064v-0.43Zm7.588-1.753h-0.391l-0.064.071-0.154.8a1.145,1.145,0,0,1-.122.385,0.21,0.21,0,0,1-.1.071,9.965,9.965,0,0,1-2.295.148H380.68q-0.031-.79-0.032-1.631V49.9q0.4-.032.872-0.032c0.3,0,.572.011,0.833,0.032a0.964,0.964,0,0,1,.622.183,2.057,2.057,0,0,1,.1.876l0.064,0.064h0.43l0.064-.058q-0.025-.77-0.026-1.419,0-.6.026-1.316l-0.064-.064h-0.4l-0.064.064a2.046,2.046,0,0,1-.134.867,1.283,1.283,0,0,1-.667.1l-0.839.006c-0.21,0-.483-0.011-0.821-0.032V47.839q0-1.194.071-1.868,0.57-.045,1.128-0.045,0.468,0,1.086.051a1.463,1.463,0,0,1,.689.141,2.641,2.641,0,0,1,.1,1l0.064,0.064h0.372l0.064-.071,0.045-.6c0.012-.158.032-0.351,0.057-0.578l0.084-.713-0.071-.051q-3.378.039-4.583,0.038-1.353,0-2-.038l-0.064.058v0.437l0.064,0.064a7.06,7.06,0,0,1,.75.064,0.279,0.279,0,0,1,.218.238,14.322,14.322,0,0,1,.084,1.99v3.255l-0.02,1.438a3.409,3.409,0,0,1-.07.854,2.256,2.256,0,0,1-.513.379l-0.032.077V54.2l0.064,0.064q0.482-.039,1.647-0.039l4.66,0.039,0.064-.064a14.344,14.344,0,0,1,.141-2.119Zm10.741-6.792-0.064-.058q-0.66.039-1.487,0.038-0.648,0-1.365-.038l-0.064.058v0.437l0.064,0.064a7.06,7.06,0,0,1,.75.064,0.281,0.281,0,0,1,.218.238,14.549,14.549,0,0,1,.083,1.99v3.756q-3.115-3.525-5.423-6.606-0.57.039-1.435,0.038-0.552,0-1.161-.038l-0.064.058v0.437l0.064,0.064a7.06,7.06,0,0,1,.75.064,0.279,0.279,0,0,1,.218.238,14.322,14.322,0,0,1,.084,1.99v3.4a14.322,14.322,0,0,1-.084,1.99,0.279,0.279,0,0,1-.218.237,6.985,6.985,0,0,1-.75.064l-0.064.064v0.437l0.064,0.058q0.744-.039,1.481-0.039,0.635,0,1.372.039l0.064-.058V53.771l-0.064-.064a6.985,6.985,0,0,1-.75-0.064,0.279,0.279,0,0,1-.218-0.237,14.38,14.38,0,0,1-.083-1.99v-4.2q4.146,5.117,5.864,7.049,0.372,0.051,1.1.173l0.084-.058q-0.084-.873-0.084-3.756V48.019a14.322,14.322,0,0,1,.084-1.99,0.279,0.279,0,0,1,.218-0.238,7.06,7.06,0,0,1,.75-0.064l0.07-.064V45.226Zm9,7.73a5.212,5.212,0,0,1-2.506.661,3.563,3.563,0,0,1-2.25-.655,4.192,4.192,0,0,1-1.576-3.518,3.876,3.876,0,0,1,.884-2.683,3.11,3.11,0,0,1,2.442-.989,2.926,2.926,0,0,1,2.314.905,8.891,8.891,0,0,1,.071,1.078l0.064,0.071h0.378l0.058-.064a10.7,10.7,0,0,1,.269-2.074l-0.083-.1a8.562,8.562,0,0,0-3.071-.571,5.609,5.609,0,0,0-3.9,1.29,4.284,4.284,0,0,0-1.4,3.358,5.249,5.249,0,0,0,.571,2.42q1.23,2.414,4.576,2.414a6.169,6.169,0,0,0,3.026-.745l0.3-.655Zm7.639-.937h-0.391l-0.064.071-0.153.8a1.169,1.169,0,0,1-.122.385,0.213,0.213,0,0,1-.1.071,9.954,9.954,0,0,1-2.294.148h-0.872q-0.033-.79-0.032-1.631V49.9c0.269-.021.56-0.032,0.871-0.032q0.442,0,.834.032a0.958,0.958,0,0,1,.621.183,2.033,2.033,0,0,1,.1.876l0.064,0.064h0.43l0.064-.058q-0.025-.77-0.026-1.419,0-.6.026-1.316l-0.064-.064h-0.4l-0.064.064a2.022,2.022,0,0,1-.135.867,1.278,1.278,0,0,1-.666.1l-0.84.006c-0.209,0-.483-0.011-0.82-0.032V47.839q0-1.194.07-1.868,0.571-.045,1.128-0.045,0.468,0,1.087.051a1.463,1.463,0,0,1,.689.141,2.629,2.629,0,0,1,.1,1l0.065,0.064h0.371l0.064-.071,0.045-.6q0.019-.237.058-0.578l0.083-.713-0.07-.051q-3.378.039-4.583,0.038-1.353,0-2-.038l-0.064.058v0.437l0.064,0.064a7.06,7.06,0,0,1,.75.064,0.281,0.281,0,0,1,.218.238,14.549,14.549,0,0,1,.083,1.99v3.255l-0.019,1.438a3.385,3.385,0,0,1-.071.854,2.21,2.21,0,0,1-.512.379l-0.032.077V54.2l0.064,0.064q0.48-.039,1.647-0.039l4.66,0.039,0.064-.064a14.344,14.344,0,0,1,.141-2.119Zm7.21-2.119a1.936,1.936,0,0,0-.974-0.745,3.726,3.726,0,0,0-.7-0.186q-0.615-.109-0.75-0.128a5.16,5.16,0,0,1-1.634-.43,1.2,1.2,0,0,1-.532-1.085,1.44,1.44,0,0,1,.468-1.111,1.938,1.938,0,0,1,1.358-.456,2.837,2.837,0,0,1,1.1.218,1.517,1.517,0,0,1,.692.514,7.822,7.822,0,0,1,.064,1l0.064,0.064h0.4l0.07-.064a11.268,11.268,0,0,1,.186-1.836l-0.045-.154a5.244,5.244,0,0,0-2.423-.481,3.812,3.812,0,0,0-2.6.822,2.663,2.663,0,0,0-.884,2.1,2.172,2.172,0,0,0,.814,1.868,5.711,5.711,0,0,0,2.249.661,3.854,3.854,0,0,1,1.1.289,1.219,1.219,0,0,1,.686,1.175,1.934,1.934,0,0,1-.25.944,1.826,1.826,0,0,1-1.756.886,2.883,2.883,0,0,1-1.3-.308,1.848,1.848,0,0,1-.827-0.706,7.742,7.742,0,0,1-.076-0.95V51.653l-0.058-.064h-0.41l-0.064.064a9.379,9.379,0,0,1-.18,2.1l0.077,0.141a6.082,6.082,0,0,0,2.641.616,4.9,4.9,0,0,0,1.865-.321,3.147,3.147,0,0,0,1.378-1.059,3.042,3.042,0,0,0,.6-1.868,2.46,2.46,0,0,0-.353-1.361h0Z"/>
  <path id="Logo" fill="currentColor" class="cls-3" d="M0.178,0.3V9.042H3.385V36.228s-1,6.1,5.048,11.957A15.157,15.157,0,0,0,20.253,52.23s7.068,0.992,12.175-4.045A17.4,17.4,0,0,0,37.3,36.228V9.042h3.148V0.3H24.173V9.042H27.32S26.9,30.487,26.9,36.228c0,5.889-6.652,5.711-6.652,5.711s-6.652.03-6.652-5.711c0-5.978-.416-27.186-0.416-27.186h3.148V0.3H0.178Zm41.4,0V9.042H44.96V42.89H41.753v8.8H57.907v-8.8H54.76V29.863H66.816V21.177H54.76V9.042H67.766v4.64h8.849V0.3H41.574Z"/>
  <path id="Bar" fill="#f47836" class="cls-4" d="M83.989,58.012h2V-0.017h-2V58.012Z"/>
</svg>
